# xmcd
#
# Track frame offsets: 
#        150
#        6903
#        21536
#        48127
#        82606
#        111174
#        207853
#
# Disc length: 3419 seconds
#
# Revision: 0
# Processed by: cddbd v1.5.2PL0 Copyright (c) Steve Scherf et al.
# Submitted via: ExactAudioCopy v0.99pb5
#
DISCID=4c0d5907
DTITLE=Led Zeppelin - Maxell is Pleased to Present: The Complete BBC S
DTITLE=essions Disc 3
DYEAR=2006
DGENRE=Blues
TTITLE0=01. John Peel Introduction (04-01-71 Sunday in Concert)
TTITLE1=02. Immigrant Song (04-01-71 Sunday in Concert)
TTITLE2=04. Heartbreaker (04-01-71 Sunday in Concert)
TTITLE3=05. Since I've Been Loving You (04-01-71 Sunday in Concert)
TTITLE4=06. Black Dog (04-01-71 Sunday in Concert)
TTITLE5=07. Dazed and Confused (04-01-71 Sunday in Concert)
TTITLE6=08. Stairway to Heaven (04-01-71 Sunday in Concert)
EXTD=
EXTT0=
EXTT1=
EXTT2=
EXTT3=
EXTT4=
EXTT5=
EXTT6=
PLAYORDER=
